<svg width="184" height="184" viewBox="0 0 184 184" fill="none" xmlns="http://www.w3.org/2000/svg">
<path d="M142.863 56.8172L124.262 65.6411L158.165 73.512L145.286 57.3716C145.005 57.0189 144.612 56.7721 144.171 56.6714C143.731 56.5707 143.27 56.6221 142.863 56.8172Z" fill="#E0E0E0"/>
<path d="M124.423 65.6818L158.131 73.5071C158.174 73.5173 158.212 73.5445 158.236 73.5826C158.26 73.6208 158.268 73.6668 158.257 73.7106L153.788 92.963C153.763 93.0683 153.698 93.1596 153.606 93.2168C153.515 93.274 153.404 93.2924 153.298 93.2679L120.06 85.5514C119.954 85.5269 119.863 85.4616 119.806 85.3699C119.749 85.2781 119.73 85.1673 119.755 85.062L124.224 65.8097C124.234 65.7666 124.261 65.7292 124.298 65.7053C124.335 65.6814 124.38 65.673 124.423 65.6818Z" fill="#E0E0E0"/>
<path d="M155.965 73.4879L140.054 78.8391L126.044 67.2114L128.513 57.9019C128.637 57.4169 128.947 57.0004 129.376 56.743C129.805 56.4855 130.318 56.4081 130.804 56.5274L156.579 62.5062C157.071 62.6217 157.497 62.9279 157.764 63.3574C158.03 63.787 158.115 64.3048 158 64.7969L155.965 73.4879Z" fill="white"/>
<path d="M139.046 77.2635L120.001 83.9066C119.955 84.1055 119.948 84.3115 119.982 84.5129C120.015 84.7142 120.088 84.907 120.196 85.0802C120.304 85.2534 120.445 85.4036 120.611 85.5222C120.778 85.6407 120.965 85.7254 121.164 85.7713L152.195 92.9733C152.393 93.0195 152.599 93.026 152.801 92.9925C153.002 92.959 153.195 92.8861 153.368 92.778C153.541 92.67 153.691 92.5288 153.81 92.3626C153.929 92.1965 154.013 92.0085 154.059 91.8096L154.087 91.6951L140.768 77.6988C140.553 77.4684 140.277 77.3049 139.971 77.2277C139.666 77.1505 139.344 77.163 139.046 77.2635Z" fill="#E0E0E0"/>
<path d="M141.145 63.3426L131.063 61.0039L130.824 62.0348L140.906 64.3735L141.145 63.3426Z" fill="#E0E0E0"/>
<path d="M152.833 68.807L130.46 63.6172L130.19 64.782L152.563 69.9718L152.833 68.807Z" fill="#F5F5F5"/>
<path d="M152.172 71.6449L129.799 66.4551L129.529 67.6199L151.901 72.8097L152.172 71.6449Z" fill="#F5F5F5"/>
<path d="M150.88 75.2067L149.941 75.5136L131.051 71.3674L129.136 69.7456L129.173 69.4707L151.471 74.6432L151.384 75.028L150.88 75.2067Z" fill="#F5F5F5"/>
<path d="M144.402 77.3747L135.94 75.4139L133.915 73.7188L146.56 76.6509L144.402 77.3747Z" fill="#F5F5F5"/>
<path d="M138.35 77.5059C138.122 77.6252 137.885 77.7233 137.639 77.7991L135.665 78.5092C133.997 79.1002 131.693 79.8836 129.141 80.7678C126.589 81.6521 124.271 82.4126 122.589 82.9624L120.601 83.6038C120.361 83.6939 120.112 83.7614 119.859 83.8053C120.088 83.6897 120.325 83.5917 120.569 83.5121L122.539 82.802C124.207 82.211 126.511 81.4276 129.063 80.5434C131.615 79.6591 133.929 78.8986 135.61 78.3488L137.603 77.712C137.846 77.625 138.096 77.5561 138.35 77.5059Z" fill="#EBEBEB"/>
<path d="M154.087 91.6951C154.041 91.7409 151.164 88.795 147.673 85.1207C144.182 81.4464 141.369 78.4272 141.419 78.3814C141.47 78.3356 144.342 81.2769 147.833 84.9558C151.324 88.6347 154.137 91.6493 154.087 91.6951Z" fill="#EBEBEB"/>
<path d="M156.739 73.2285C156.555 73.3316 156.361 73.4189 156.162 73.4897C155.786 73.6408 155.246 73.8562 154.559 74.1127C153.184 74.6259 151.315 75.3085 149.221 76.0278C147.127 76.7471 145.212 77.361 143.824 77.7871C143.128 77.9978 142.564 78.1673 142.175 78.2727C141.976 78.3437 141.77 78.3929 141.561 78.4193C141.749 78.3238 141.945 78.2456 142.147 78.1856L143.774 77.6267L149.143 75.7941L154.504 73.9615L156.13 73.4118C156.327 73.3314 156.531 73.27 156.739 73.2285Z" fill="#EBEBEB"/>
<path d="M138.35 77.5072C138.147 77.3704 137.955 77.2172 137.777 77.0491L136.265 75.7846L131.226 71.6613C129.256 70.0532 127.487 68.578 126.237 67.4739C125.609 66.9241 125.105 66.4751 124.766 66.1544C124.58 65.999 124.409 65.8255 124.257 65.6367C124.459 65.7756 124.65 65.9287 124.83 66.0949L126.342 67.3593L131.381 71.4826C133.351 73.0907 135.12 74.5705 136.371 75.6701C136.998 76.2199 137.502 76.6734 137.841 76.9941C138.026 77.1489 138.197 77.3207 138.35 77.5072Z" fill="#EBEBEB"/>
<path d="M155.965 73.4884C155.961 73.4442 155.961 73.3997 155.965 73.3555C155.965 73.2593 156.011 73.131 156.043 72.9753C156.116 72.6271 156.222 72.1414 156.355 71.5275L157.555 66.1993C157.619 65.9152 157.683 65.6266 157.747 65.3334C157.827 65.0419 157.885 64.7448 157.921 64.4446C157.939 64.1331 157.874 63.8224 157.735 63.5435C157.595 63.2646 157.384 63.0272 157.124 62.8548C156.846 62.679 156.534 62.5635 156.208 62.5158L155.168 62.2776L152.996 61.7782L143.334 59.547L133.672 57.293L131.5 56.7844C131.163 56.6931 130.82 56.6212 130.474 56.5691C130.152 56.5481 129.83 56.614 129.543 56.7599C129.255 56.9058 129.012 57.1263 128.838 57.3983C128.684 57.6702 128.575 57.9659 128.518 58.2734C128.353 58.8782 128.197 59.46 128.06 60.0189L126.621 65.2876C126.451 65.8969 126.319 66.3734 126.218 66.717C126.175 66.8697 126.138 66.9934 126.108 67.0881C126.1 67.1316 126.084 67.1734 126.062 67.2118C126.062 67.2118 126.062 67.166 126.085 67.0789L126.172 66.7033C126.259 66.3596 126.378 65.8786 126.534 65.2647C126.859 64.0002 127.322 62.1951 127.908 59.9777C128.055 59.4188 128.206 58.8323 128.366 58.2276C128.428 57.9055 128.543 57.5959 128.706 57.3113C128.892 57.0128 129.154 56.7693 129.466 56.6058C129.788 56.4348 130.151 56.3571 130.515 56.3813C130.873 56.4321 131.228 56.5024 131.578 56.592L133.75 57.0914L143.412 59.3271L153.074 61.5675L155.241 62.076L156.281 62.3188C156.635 62.3721 156.973 62.4985 157.275 62.6899C157.561 62.8829 157.792 63.147 157.945 63.4564C158.097 63.7657 158.167 64.1095 158.146 64.4538C158.108 64.7634 158.047 65.0697 157.963 65.3701C157.894 65.6633 157.825 65.9519 157.756 66.2314C157.225 68.4625 156.79 70.2722 156.487 71.5413L156.13 72.9844C156.089 73.1356 156.057 73.2593 156.029 73.3555C156.015 73.4027 155.993 73.4475 155.965 73.4884Z" fill="#E0E0E0"/>
<path d="M112.075 18.9009L143.802 13L148.543 34.4412L115.594 40.0076L112.075 18.9009Z" fill="#EBEBEB"/>
<path d="M143.802 13C143.802 13 143.802 13.0321 143.747 13.0916L143.568 13.339L142.863 14.2828L140.246 17.7372C137.956 20.6556 134.85 24.6735 131.395 29.1359L131.336 29.2137L131.244 29.1679L130.63 28.8426L117.486 21.8559L113.514 19.7164L112.442 19.1208L112.167 18.9605C112.134 18.9452 112.103 18.9251 112.075 18.9009C112.111 18.9085 112.145 18.9225 112.176 18.9421L112.465 19.0796L113.56 19.6339L117.564 21.7093C120.954 23.4869 125.604 25.9334 130.74 28.6365L131.358 28.9618L131.207 28.9938L140.091 17.6364L142.789 14.2278L143.531 13.3115L143.728 13.0779C143.749 13.0486 143.774 13.0224 143.802 13Z" fill="#E0E0E0"/>
<path d="M115.594 40.0075C115.539 39.9708 117.578 36.7363 120.148 32.7825C122.718 28.8287 124.853 25.6492 124.908 25.6859C124.963 25.7225 122.924 28.957 120.349 32.9108C117.775 36.8646 115.649 40.0441 115.594 40.0075Z" fill="#E0E0E0"/>
<path d="M148.543 34.4417C148.502 34.4921 145.533 32.2197 141.914 29.3701C138.294 26.5204 135.394 24.1564 135.431 24.0968C135.468 24.0373 138.441 26.3188 142.06 29.1731C145.68 32.0273 148.58 34.3914 148.543 34.4417Z" fill="#E0E0E0"/>
<path d="M162.957 33.7266L183.999 38.8257L181.017 53.2481L159.319 47.6129L162.957 33.7266Z" fill="#F5F5F5"/>
<path d="M183.999 38.8257C183.927 38.8837 183.848 38.9344 183.766 38.9769L183.079 39.3663L180.522 40.7408L171.991 45.3222L171.904 45.368L171.845 45.2901L171.556 44.9236L165.445 37.0389C164.684 36.0402 164.07 35.2064 163.612 34.6291L163.122 33.9694C163.062 33.893 163.008 33.8118 162.961 33.7266C163.036 33.7878 163.102 33.8587 163.158 33.9373L163.685 34.5741C164.143 35.156 164.789 35.9486 165.577 36.9336C167.172 38.9677 169.348 41.7303 171.749 44.7862L172.037 45.1527L171.886 45.1206L180.449 40.6171L183.042 39.2839L183.747 38.9357C183.826 38.8869 183.91 38.8498 183.999 38.8257Z" fill="#E0E0E0"/>
<path d="M159.319 47.6125C159.282 47.5575 161.408 46.1189 164.07 44.4055C166.732 42.692 168.917 41.3451 168.949 41.4001C168.981 41.455 166.86 42.8936 164.198 44.6071C161.536 46.3205 159.355 47.6675 159.319 47.6125Z" fill="#E0E0E0"/>
<path d="M181.022 53.2476C180.967 53.2796 179.757 51.0805 178.323 48.3408C176.889 45.6011 175.771 43.3379 175.826 43.3379C175.881 43.3379 177.095 45.5049 178.529 48.2446C179.963 50.9843 181.072 53.2201 181.022 53.2476Z" fill="#E0E0E0"/>
<path d="M141.072 162.296L141.58 162.479C141.91 162.607 142.414 162.777 143.083 162.964C145.036 163.509 147.067 163.715 149.089 163.574C150.549 163.473 151.997 163.24 153.414 162.877C155.103 162.463 156.75 161.89 158.33 161.164C162.174 159.346 165.591 156.735 168.354 153.504C169.156 152.611 169.778 151.572 170.187 150.443C170.605 149.262 170.542 147.964 170.013 146.829C169.718 146.264 169.276 145.79 168.735 145.454C168.177 145.114 167.551 144.898 166.902 144.822C165.556 144.661 164.192 144.884 162.967 145.463C162.32 145.746 161.654 145.982 160.974 146.169C160.264 146.354 159.515 146.335 158.816 146.114C158.45 146.009 158.117 145.816 157.845 145.55C157.573 145.285 157.371 144.956 157.258 144.593C157.17 144.221 157.162 143.834 157.236 143.459C157.309 143.083 157.462 142.728 157.684 142.417C158.122 141.785 158.729 141.288 159.434 140.983C160.129 140.675 160.844 140.416 161.574 140.208C164.54 139.254 167.333 137.826 169.843 135.98C170.497 135.527 171.091 134.995 171.612 134.395C172.158 133.818 172.482 133.066 172.528 132.273C172.521 131.883 172.405 131.502 172.194 131.174C171.974 130.844 171.68 130.57 171.337 130.372C170.622 129.982 169.828 129.76 169.014 129.721C168.17 129.683 167.331 129.568 166.508 129.378C166.077 129.276 165.676 129.074 165.338 128.787C165 128.5 164.736 128.138 164.565 127.729C164.489 127.51 164.463 127.277 164.491 127.048C164.519 126.818 164.599 126.598 164.726 126.405C164.994 126.05 165.33 125.752 165.715 125.529C166.43 125.071 167.136 124.572 167.818 124.05C169.197 122.997 170.493 121.839 171.694 120.586C172.885 119.317 174.095 117.998 174.842 116.403C175.231 115.617 175.417 114.746 175.382 113.87C175.329 112.992 174.978 112.158 174.388 111.506C173.793 110.859 173.042 110.376 172.207 110.102C171.373 109.827 170.481 109.771 169.619 109.939C167.902 110.311 166.345 111.212 165.166 112.514C162.751 115.056 161.56 118.41 159.581 121.191C159.093 121.892 158.543 122.546 157.936 123.147C157.64 123.461 157.301 123.731 156.928 123.949C156.732 124.069 156.509 124.136 156.279 124.144C156.05 124.152 155.822 124.101 155.618 123.995C155.434 123.866 155.278 123.702 155.16 123.511C155.042 123.321 154.964 123.108 154.931 122.886C154.874 122.465 154.874 122.038 154.931 121.617C154.985 121.22 154.969 120.817 154.885 120.426C154.786 120.047 154.587 119.701 154.308 119.427C154.026 119.154 153.694 118.939 153.329 118.795C152.964 118.651 152.574 118.581 152.182 118.589C151.397 118.638 150.654 118.963 150.084 119.505C149.507 120.03 149.054 120.676 148.755 121.397C148.466 122.118 148.275 122.875 148.187 123.646C148.091 124.416 148.063 125.186 148.036 125.937C148.008 126.689 147.985 127.472 147.962 128.228C147.91 129.755 147.86 131.255 147.811 132.727C147.784 133.465 147.77 134.193 147.733 134.931C147.705 135.664 147.565 136.389 147.316 137.079C147.196 137.431 146.999 137.752 146.74 138.019C146.481 138.286 146.166 138.492 145.818 138.623C145.118 138.827 144.369 138.778 143.702 138.486C142.424 137.943 141.3 137.093 140.43 136.012C140.006 135.492 139.64 134.927 139.34 134.326C139.066 133.737 138.76 133.163 138.424 132.608C138.113 132.073 137.628 131.662 137.049 131.444C136.466 131.269 135.839 131.313 135.285 131.568C134.736 131.808 134.256 132.181 133.888 132.654C133.539 133.127 133.296 133.669 133.173 134.243C132.994 135.376 132.893 136.519 132.871 137.666C132.793 138.784 132.757 139.879 132.743 140.937C132.72 142.937 132.841 144.937 133.105 146.92C133.325 148.645 133.697 150.347 134.218 152.006C134.429 152.78 134.74 153.485 134.992 154.173C135.134 154.507 135.29 154.828 135.45 155.144C135.611 155.46 135.73 155.772 135.909 156.06C136.853 157.853 138.074 159.486 139.528 160.898C139.738 161.12 139.963 161.327 140.201 161.517L140.71 161.947L141.113 162.3L140.692 161.966L140.178 161.544C139.937 161.358 139.708 161.154 139.496 160.935C138.025 159.53 136.788 157.9 135.831 156.106C135.662 155.809 135.509 155.503 135.373 155.19C135.226 154.874 135.061 154.553 134.914 154.214C134.658 153.527 134.342 152.839 134.126 152.047C133.597 150.381 133.218 148.672 132.995 146.939C132.719 144.952 132.59 142.947 132.61 140.941C132.61 139.879 132.656 138.784 132.729 137.661C132.751 136.504 132.851 135.35 133.027 134.207C133.154 133.609 133.407 133.045 133.769 132.553C134.153 132.056 134.655 131.663 135.23 131.412C135.823 131.136 136.496 131.087 137.123 131.275C137.745 131.506 138.27 131.942 138.612 132.512C138.948 133.073 139.254 133.653 139.528 134.248C139.821 134.835 140.179 135.386 140.595 135.893C141.451 136.947 142.552 137.776 143.802 138.307C144.429 138.578 145.129 138.625 145.786 138.44C146.106 138.317 146.395 138.125 146.633 137.878C146.87 137.631 147.05 137.335 147.161 137.011C147.665 135.687 147.555 134.193 147.619 132.722C147.683 131.252 147.715 129.744 147.765 128.228C147.788 127.467 147.811 126.702 147.839 125.937C147.866 125.172 147.889 124.384 147.99 123.605C148.078 122.819 148.272 122.049 148.567 121.315C148.874 120.563 149.343 119.889 149.942 119.34C150.554 118.77 151.346 118.431 152.182 118.382C152.605 118.375 153.026 118.452 153.42 118.609C153.813 118.767 154.171 119.001 154.473 119.299C154.782 119.602 155.002 119.984 155.109 120.403C155.203 120.818 155.221 121.246 155.164 121.667C155.109 122.067 155.109 122.472 155.164 122.872C155.189 123.063 155.253 123.246 155.352 123.41C155.452 123.574 155.584 123.715 155.742 123.825C155.91 123.913 156.099 123.955 156.289 123.946C156.479 123.937 156.663 123.878 156.823 123.775C157.176 123.567 157.498 123.311 157.78 123.014C158.373 122.421 158.912 121.777 159.393 121.09C160.34 119.667 161.213 118.196 162.009 116.683C162.822 115.129 163.827 113.683 165.001 112.381C166.213 111.042 167.816 110.117 169.582 109.737C170.486 109.562 171.419 109.621 172.293 109.909C173.167 110.197 173.953 110.704 174.576 111.382C175.2 112.074 175.572 112.958 175.63 113.888C175.666 114.804 175.472 115.714 175.066 116.536C174.296 118.176 173.073 119.505 171.859 120.783C170.65 122.044 169.345 123.21 167.956 124.27C167.269 124.796 166.558 125.291 165.839 125.759C165.483 125.964 165.172 126.238 164.923 126.565C164.814 126.728 164.746 126.915 164.722 127.11C164.698 127.305 164.72 127.502 164.785 127.687C164.945 128.06 165.189 128.39 165.5 128.65C165.81 128.91 166.178 129.094 166.572 129.185C167.381 129.374 168.207 129.486 169.037 129.52C169.885 129.564 170.712 129.799 171.456 130.207C171.824 130.426 172.137 130.725 172.372 131.082C172.606 131.446 172.734 131.868 172.743 132.301C172.705 133.154 172.366 133.965 171.786 134.592C171.245 135.205 170.63 135.749 169.953 136.209C167.422 138.067 164.608 139.504 161.62 140.465C160.897 140.667 160.189 140.922 159.503 141.225C158.83 141.517 158.253 141.993 157.84 142.6C157.633 142.886 157.489 143.213 157.419 143.559C157.349 143.905 157.353 144.262 157.432 144.607C157.538 144.935 157.723 145.233 157.972 145.473C158.22 145.713 158.525 145.887 158.857 145.981C159.521 146.192 160.231 146.21 160.905 146.031C161.576 145.849 162.233 145.618 162.87 145.34C164.129 144.752 165.527 144.527 166.907 144.689C167.58 144.776 168.228 145.003 168.808 145.358C169.378 145.71 169.842 146.211 170.15 146.806C170.7 147.986 170.762 149.336 170.324 150.562C169.908 151.712 169.274 152.77 168.455 153.678C165.676 156.919 162.241 159.533 158.376 161.347C156.786 162.072 155.131 162.642 153.433 163.051C152.008 163.408 150.555 163.636 149.089 163.734C147.057 163.863 145.017 163.64 143.06 163.074C142.552 162.931 142.052 162.761 141.562 162.566L141.072 162.296Z" fill="#263238"/>
<path d="M143.633 156.707C145.33 151.827 147.305 147.048 149.548 142.394C150.134 141.157 150.716 139.929 151.293 138.729C151.871 137.529 152.434 136.333 153.066 135.197C154.28 133.024 155.612 130.919 157.057 128.893C158.431 126.95 159.806 125.154 161.084 123.487C162.362 121.819 163.613 120.28 164.8 118.942C166.662 116.807 168.69 114.823 170.865 113.009C171.635 112.367 172.24 111.886 172.666 111.57L173.147 111.208C173.2 111.165 173.257 111.127 173.316 111.094L173.165 111.231L172.707 111.611C172.299 111.946 171.699 112.436 170.939 113.091C168.797 114.934 166.795 116.934 164.951 119.075C163.778 120.426 162.555 121.961 161.286 123.629C160.017 125.296 158.647 127.101 157.286 129.044C155.854 131.066 154.532 133.164 153.328 135.33C152.7 136.457 152.136 137.643 151.564 138.848L149.823 142.513C147.582 147.157 145.604 151.923 143.899 156.789" fill="#263238"/>
<path d="M153.144 135.187C153.082 134.975 153.042 134.757 153.025 134.537C152.961 134.12 152.887 133.511 152.814 132.755C152.658 131.247 152.516 129.163 152.356 126.858C152.195 124.554 152.035 122.474 151.861 120.976C151.774 120.224 151.696 119.601 151.636 119.198C151.59 118.983 151.572 118.763 151.582 118.543C151.657 118.749 151.713 118.963 151.746 119.18C151.834 119.597 151.939 120.201 152.053 120.948C152.282 122.446 152.484 124.536 152.631 126.84C152.777 129.144 152.901 131.169 152.997 132.741C153.048 133.446 153.089 134.047 153.121 134.528C153.152 134.746 153.16 134.967 153.144 135.187Z" fill="#263238"/>
<path d="M172.633 132.319C172.378 132.364 172.118 132.384 171.859 132.378C171.359 132.406 170.64 132.438 169.747 132.507C167.969 132.63 165.518 132.882 162.824 133.286C160.437 133.643 158.114 134.069 155.952 134.55C155.082 134.743 154.381 134.912 153.895 135.008C153.645 135.084 153.389 135.138 153.13 135.169C153.365 135.054 153.613 134.964 153.868 134.903C154.326 134.756 155.04 134.555 155.911 134.339C157.643 133.881 160.071 133.396 162.783 132.988C165.088 132.637 167.409 132.404 169.738 132.291C170.631 132.246 171.355 132.246 171.854 132.255C172.115 132.248 172.377 132.269 172.633 132.319Z" fill="#263238"/>
<path d="M143.885 156.358C143.833 156.284 143.791 156.204 143.761 156.119L143.459 155.405C143.198 154.786 142.84 153.879 142.419 152.752C141.571 150.498 140.499 147.35 139.363 143.859C138.227 140.368 137.182 137.212 136.38 134.948C135.991 133.844 135.666 132.937 135.428 132.264C135.327 131.97 135.24 131.732 135.171 131.531C135.135 131.447 135.111 131.359 135.098 131.27C135.151 131.344 135.193 131.425 135.221 131.512L135.528 132.222C135.789 132.846 136.142 133.753 136.564 134.88C137.411 137.129 138.488 140.281 139.624 143.772C140.76 147.263 142.258 150.919 143.06 153.187C143.45 154.291 143.317 154.69 143.555 155.363C143.66 155.657 143.743 155.899 143.812 156.096C143.847 156.18 143.871 156.268 143.885 156.358Z" fill="#263238"/>
<path d="M169.916 149.068C169.834 149.111 169.746 149.143 169.655 149.165L168.899 149.384L166.114 150.168C163.759 150.832 160.52 151.79 156.951 152.848C153.602 153.838 150.487 154.736 147.751 155.446C146.569 155.757 145.607 155.996 144.938 156.147L144.169 156.316C144.081 156.342 143.99 156.356 143.898 156.357C143.981 156.314 144.069 156.282 144.16 156.261L144.916 156.041L147.701 155.258C150.056 154.594 153.295 153.636 156.864 152.578C160.433 151.519 163.695 150.594 166.063 149.98C167.245 149.669 168.208 149.43 168.872 149.279L169.642 149.11C169.731 149.083 169.823 149.07 169.916 149.068Z" fill="#263238"/>
<path d="M94.332 50.8564C94.332 50.8564 94.0663 49.5828 93.6219 45.8993L89.5719 37.9596C89.5719 37.9596 90.4882 36.2966 92.5544 39.8151C93.5074 41.4186 96.6777 40.7314 96.1646 38.23C95.6515 35.7285 92.3712 34.5648 90.3645 37.0571C90.3645 37.0571 89.0679 37.19 88.9168 36.1775C88.7656 35.165 91.6931 32.6635 94.1854 33.3919C95.2012 33.7118 96.1379 34.2426 96.9343 34.9496C96.9343 34.9496 96.3937 26.6022 97.0717 26.5289C97.7498 26.4556 98.689 26.9871 99.2021 36.1179C99.2021 36.1179 99.4861 28.893 99.6282 27.9721C99.7702 27.0512 101.003 26.4281 101.168 28.7418C101.168 28.9983 101.626 36.0996 101.626 36.0996C101.626 36.0996 102.437 31.4036 102.542 31.0279C102.771 30.0383 103.747 30.1437 103.843 31.454C103.912 32.4482 104.233 36.6906 104.233 36.6906L104.846 49.7523H104.929" fill="#FFBE9D"/>
<path d="M107.289 46.5444L92.0781 46.1504L90.5662 82.9577L73.3583 75.4075L73.3308 75.4671C72.2954 75.0089 71.3929 74.5966 70.9118 74.3309C61.4053 69.1492 55.1654 68.517 44.9625 72.1593L25.4181 79.9844C21.6338 81.7665 11.7883 83.4113 8.41176 98.979L7.95361 100.839L23.5947 112.059L34.3198 140.327L47.1479 168.622L76.6753 167.664L92.1056 148.422L79.0118 123.412L70.8752 95.4009C76.6249 99.2173 87.2951 104.413 100.073 101.705C113.932 98.7729 107.289 46.5444 107.289 46.5444Z" fill="#01959F"/>
<g opacity="0.3">
<path d="M34.2192 140.039C36.5666 141.468 39.0994 142.567 41.7465 143.305C43.1851 143.736 44.8344 144.052 46.1127 143.264C47.3909 142.476 47.5879 140.144 46.1585 139.677L58.5513 136.877C56.8699 132.039 59.6417 126.519 63.8337 123.591C68.0257 120.664 72.7904 119.812 77.8941 119.367L84.0745 138.541L63.4168 166.716L46.5021 167.207L34.2192 140.039Z" fill="black"/>
</g>
<path d="M27.7359 113.553C27.7359 113.553 19.9887 130.505 21.7801 138.953C22.7696 143.681 38.2412 147.717 48.1005 148.922L45.1454 165.47C45.1454 165.47 8.49387 161.984 1.64461 147.474C-2.24962 139.228 1.695 119.07 9.11236 96.2539L27.7359 113.553Z" fill="#01959F"/>
<path d="M63.0222 133.404C62.9408 133.461 62.8532 133.509 62.7611 133.546L61.9868 133.904C61.3133 134.215 60.3283 134.641 59.1051 135.154C56.6586 136.171 53.2317 137.482 49.3787 138.719C45.5257 139.956 41.9751 140.881 39.3911 141.468C38.0992 141.765 37.05 141.99 36.3216 142.127L35.4832 142.283C35.3875 142.309 35.289 142.323 35.1899 142.324C35.281 142.285 35.3763 142.256 35.474 142.237L36.3032 142.036C37.0271 141.871 38.0671 141.619 39.3545 141.303C41.9247 140.666 45.457 139.713 49.3054 138.481C53.1538 137.248 56.5807 135.965 59.0409 134.985C60.2734 134.499 61.2629 134.096 61.9502 133.812L62.7382 133.491C62.8295 133.452 62.9247 133.423 63.0222 133.404Z" fill="white"/>
<path d="M73.2253 74.8639C73.2253 74.9234 58.8075 80.16 40.9765 86.5557C23.1455 92.9514 8.66356 98.0872 8.64065 98.0093C8.61774 97.9314 23.0585 92.7132 40.894 86.3175C58.7296 79.9218 73.2024 74.7997 73.2253 74.8639Z" fill="white"/>
<path d="M23.9703 122.14C23.9782 122.105 23.9905 122.071 24.007 122.039L24.1261 121.755L24.5842 120.66C24.9874 119.707 25.5601 118.319 26.1419 116.564C26.8275 114.507 27.2973 112.383 27.5439 110.228C27.8475 107.597 27.6548 104.931 26.9758 102.371C26.3092 99.8039 24.9934 97.4515 23.1548 95.54C21.626 94.0097 19.7466 92.8758 17.68 92.2368C16.2852 91.811 14.822 91.6555 13.3689 91.7787L12.6862 91.8657C12.4892 91.8932 12.3289 91.9344 12.1914 91.9573L11.8891 92.0169H11.7837C11.7837 92.0169 11.8158 92.0169 11.8799 91.9848L12.1823 91.9024C12.3151 91.8703 12.4801 91.8199 12.6771 91.7832L13.3597 91.6779C14.8265 91.5167 16.3107 91.6491 17.7258 92.0673C19.8327 92.6901 21.7518 93.8268 23.3106 95.3751C25.1851 97.3073 26.5268 99.6924 27.2048 102.298C27.8921 104.887 28.0818 107.582 27.7638 110.242C27.5012 112.406 27.0098 114.536 26.2977 116.596C25.693 118.351 25.0974 119.73 24.6667 120.674C24.4468 121.132 24.2727 121.508 24.149 121.75L24.007 122.03C23.9932 122.099 23.9749 122.14 23.9703 122.14Z" fill="#263238"/>
<path d="M60.7816 71.0469C60.873 71.0742 60.9607 71.1127 61.0428 71.1614C61.289 71.2835 61.5263 71.4228 61.7529 71.5783C62.5943 72.1468 63.341 72.8441 63.9657 73.6446C64.8824 74.8387 65.6144 76.1638 66.1373 77.5754C66.7601 79.2976 67.2908 81.0518 67.7271 82.8304L70.279 92.4514L71.0212 95.3789L71.2136 96.1761C71.2421 96.2683 71.259 96.3638 71.264 96.4602C71.2218 96.374 71.1895 96.2833 71.1678 96.1898C71.1082 95.9837 71.0303 95.7317 70.9341 95.4018L70.114 92.4972L67.498 82.8762C66.9941 80.9978 66.5313 79.211 65.9312 77.635C65.4241 76.2393 64.7174 74.9244 63.8329 73.7316C63.2291 72.9332 62.5113 72.2278 61.7025 71.6379C61.1252 71.2439 60.7679 71.0652 60.7816 71.0469Z" fill="#263238"/>
<path d="M86.1177 80.9062L85.9162 81.0025L85.3068 81.2682L82.9794 82.2486C80.9453 83.1099 77.9902 84.3286 74.3343 85.8221C67.0039 88.8047 56.8789 92.8317 45.604 97.0833C34.3291 101.335 24.0712 105.014 16.5897 107.621C12.8604 108.917 9.83666 109.948 7.74294 110.649L5.32852 111.451L4.70086 111.652L4.48096 111.716L4.6917 111.629L5.31478 111.405L7.71087 110.562L16.5347 107.46C23.9796 104.831 34.242 101.129 45.5215 96.8772C56.8011 92.6256 66.9444 88.6306 74.2701 85.6801L82.9428 82.1799L85.3022 81.2269L85.9207 80.9841L86.1177 80.9062Z" fill="white"/>
<path d="M72.7033 99.1719L72.5292 99.2543L72.007 99.4788L69.9865 100.317C68.2318 101.046 65.6846 102.067 62.5234 103.309C56.201 105.787 47.4046 109.082 37.614 112.435C27.8235 115.789 18.8301 118.561 12.329 120.471C9.07164 121.424 6.42814 122.175 4.59557 122.675L2.4881 123.247L1.93833 123.389C1.87719 123.409 1.81428 123.423 1.75049 123.431C1.8083 123.405 1.86803 123.383 1.92916 123.366L2.47436 123.202L4.57266 122.597C6.40524 122.07 9.03041 121.291 12.2832 120.306C18.7843 118.359 27.7364 115.56 37.5362 112.211C47.3359 108.862 56.1277 105.59 62.4638 103.149C65.6296 101.93 68.186 100.931 69.9499 100.23L71.9886 99.433L72.5201 99.2314L72.7033 99.1719Z" fill="white"/>
<path d="M108.521 83.3105C108.439 83.3945 108.35 83.4711 108.255 83.5396L107.454 84.1627C107.105 84.433 106.675 84.7583 106.166 85.1202C105.658 85.4822 105.085 85.9082 104.43 86.3435C103.133 87.2368 101.553 88.2493 99.7613 89.3122C97.97 90.3751 95.9541 91.4701 93.8054 92.5193C91.6567 93.5684 89.5401 94.4801 87.6067 95.2681C85.6734 96.0561 83.8958 96.6425 82.3931 97.1236C81.6463 97.371 80.9591 97.5817 80.3589 97.7421C79.7587 97.9024 79.241 98.0628 78.815 98.1682L77.8299 98.4202C77.7175 98.4524 77.6025 98.4754 77.4863 98.4889C77.5925 98.4393 77.7029 98.3994 77.8162 98.3698L78.7875 98.0811C79.209 97.9574 79.7037 97.8062 80.3222 97.623C80.9407 97.4397 81.5959 97.2336 82.3381 96.9724C83.8316 96.4776 85.5909 95.8362 87.5243 95.0711C89.4576 94.306 91.5468 93.3806 93.7001 92.3222C95.8533 91.2639 97.86 90.1736 99.6559 89.1152C101.452 88.0569 103.032 87.0673 104.338 86.1923C104.998 85.7662 105.575 85.3539 106.093 85.0011C106.611 84.6483 107.046 84.3368 107.403 84.0848L108.228 83.4984C108.319 83.4266 108.418 83.3637 108.521 83.3105Z" fill="white"/>
<path d="M109.235 71.0876C109.258 71.1517 105.052 72.8423 99.8434 74.8672C94.6343 76.8922 90.3873 78.482 90.3644 78.4179C90.3414 78.3537 94.5426 76.6678 99.7563 74.6428C104.97 72.6178 109.212 71.028 109.235 71.0876Z" fill="white"/>
<path d="M108.31 59.6885C108.31 59.7526 104.645 60.8567 100.063 62.1533C95.482 63.4498 91.7664 64.444 91.7481 64.3844C91.7298 64.3249 95.4133 63.2208 99.9947 61.9242C104.576 60.6277 108.292 59.6243 108.31 59.6885Z" fill="white"/>
<path d="M107.504 48.539C107.504 48.6031 103.944 49.4553 99.5228 50.4128C95.1017 51.3703 91.5099 52.1217 91.4961 52.0575C91.4824 51.9934 95.0513 51.1412 99.4724 50.1837C103.894 49.2262 107.485 48.4748 107.504 48.539Z" fill="white"/>
<path d="M75.5897 111.786C75.5897 111.845 65.4188 115.909 52.8244 120.885C40.2301 125.86 29.9951 129.828 29.9722 129.768C29.9493 129.709 40.1384 125.645 52.7374 120.665C65.3364 115.685 75.5667 111.722 75.5897 111.786Z" fill="white"/>
<path d="M21.6931 131.957C21.6284 131.998 21.5593 132.032 21.487 132.058L20.8731 132.31C20.337 132.521 19.5582 132.818 18.5823 133.176C16.649 133.89 13.9597 134.83 10.9634 135.783C7.96713 136.735 5.22743 137.528 3.23908 138.073C2.24491 138.339 1.43399 138.531 0.875056 138.687L0.229072 138.838C0.155022 138.862 0.0777765 138.875 0 138.875C0.0676105 138.838 0.140078 138.81 0.215327 138.793L0.852149 138.596L3.19327 137.908C5.16787 137.331 7.89383 136.534 10.8901 135.563C13.8864 134.591 16.5757 133.693 18.5228 133.02L20.8135 132.227L21.4412 132.017C21.5209 131.982 21.6063 131.962 21.6931 131.957Z" fill="white"/>
<path d="M27.1313 143.566C27.1588 143.626 22.22 145.687 16.1038 148.17C9.98758 150.653 5.00297 152.619 4.98006 152.559C4.95715 152.5 9.89137 150.434 16.0122 147.95C22.133 145.467 27.1084 143.502 27.1313 143.566Z" fill="white"/>
<path d="M36.1246 146.774C36.175 146.82 33.4033 150.1 29.9397 154.104C26.4761 158.108 23.6219 161.32 23.5715 161.279C23.5211 161.237 26.2929 157.953 29.7564 153.948C33.22 149.944 36.0742 146.733 36.1246 146.774Z" fill="white"/>
<path d="M45.3195 149.109C45.3837 149.132 44.2704 152.623 42.8364 156.898C41.4024 161.172 40.1883 164.645 40.1288 164.622C40.0692 164.599 41.1779 161.113 42.6119 156.834C44.0459 152.555 45.2554 149.087 45.3195 149.109Z" fill="white"/>
<path d="M105.428 97.5596C105.456 97.6191 102.821 98.7095 99.5457 99.9923C96.27 101.275 93.5898 102.26 93.5898 102.201C93.5898 102.141 96.2013 101.051 99.477 99.7679C102.753 98.485 105.401 97.4955 105.428 97.5596Z" fill="white"/>
<g opacity="0.3">
<path d="M66.3257 78.418C70.5773 89.9311 78.2374 96.3681 89.0542 102.141C82.6574 101.432 76.5271 99.1855 71.1866 95.5938" fill="black"/>
</g>
<path d="M62.4727 170.245H144.082V135.38C144.083 133.827 143.777 132.289 143.183 130.854C142.589 129.418 141.718 128.114 140.62 127.016C139.522 125.917 138.218 125.046 136.783 124.451C135.348 123.857 133.81 123.551 132.257 123.551H74.3019C71.1646 123.551 68.1558 124.797 65.9374 127.016C63.719 129.234 62.4727 132.243 62.4727 135.38V170.245Z" fill="#146166"/>
<path d="M73.051 123.551H86.0165C87.2875 123.551 88.5064 124.056 89.4051 124.954C90.3038 125.853 90.8087 127.072 90.8087 128.343V169.636C90.8087 169.797 90.7445 169.952 90.6302 170.066C90.516 170.181 90.361 170.245 90.1994 170.245H63.0864C62.9248 170.245 62.7698 170.181 62.6555 170.066C62.5412 169.952 62.4771 169.797 62.4771 169.636V134.129C62.4771 131.325 63.5909 128.635 65.5738 126.651C67.5567 124.667 70.2462 123.552 73.051 123.551Z" fill="#146166"/>
<path d="M68.4926 170.245V135.33C68.4926 132.207 69.733 129.211 71.941 127.002C74.1489 124.794 77.1438 123.552 80.2669 123.551H71.8737C71.8737 123.551 62.019 124.861 62.019 137.194C62.019 149.528 62.3352 170.245 62.3352 170.245H68.4926Z" fill="#404040"/>
<path d="M90.8091 166.928H22.3394V170.813H90.8091V166.928Z" fill="#263238"/>
<path d="M146.748 166.928H90.8086V170.813H146.748V166.928Z" fill="#455A64"/>
<path d="M90.8089 168.869C90.8029 168.823 90.8029 168.777 90.8089 168.731C90.8089 168.626 90.8089 168.489 90.8089 168.319C90.8089 167.943 90.8089 167.403 90.8089 166.748C90.8089 165.373 90.8089 163.399 90.8089 160.971C90.8318 156.073 90.8684 149.343 90.9097 141.903C90.9097 140.042 90.9692 138.237 90.8547 136.478C90.7754 134.801 90.4797 133.141 89.975 131.539C89.2342 129.266 87.7991 127.283 85.8718 125.869C83.9445 124.454 81.6221 123.68 79.2316 123.655C78.9259 123.645 78.62 123.652 78.3153 123.678C78.0943 123.686 77.874 123.707 77.6555 123.742L77.2524 123.797H77.1104L77.2478 123.765L77.651 123.687C77.8686 123.643 78.089 123.614 78.3107 123.6C78.6147 123.564 78.9209 123.548 79.227 123.554C81.1741 123.545 83.0915 124.032 84.798 124.97C87.3775 126.338 89.3123 128.669 90.1812 131.457C90.6996 133.077 91.0076 134.757 91.0975 136.455C91.212 138.214 91.1754 140.038 91.1571 141.898C91.0883 149.334 91.0288 156.068 90.983 160.961C90.9509 163.39 90.9234 165.36 90.9051 166.743C90.9051 167.412 90.8776 167.939 90.873 168.315V168.722C90.8567 168.773 90.8352 168.822 90.8089 168.869Z" fill="#263238"/>
<path d="M146.364 166.831C146.364 166.895 133.618 166.973 117.904 167C102.189 167.028 89.4438 167 89.4438 166.927C89.4438 166.853 102.18 166.785 117.904 166.757C133.627 166.73 146.364 166.766 146.364 166.831Z" fill="#263238"/>
<path d="M146.364 170.968C146.364 171.032 133.71 171.051 118.11 171.009C102.51 170.968 89.8514 170.881 89.856 170.812C89.8605 170.744 102.501 170.73 118.11 170.771C133.719 170.812 146.364 170.9 146.364 170.968Z" fill="#404040"/>
<path d="M138.997 162.493C138.997 162.493 138.997 162.434 138.997 162.328C138.997 162.223 138.997 162.053 138.997 161.847C138.997 161.421 138.997 160.803 138.997 160.015C138.997 158.407 138.974 156.065 138.96 153.106L139.029 153.179L102.409 153.225C102.46 153.175 102.285 153.344 102.524 153.106V162.498L102.405 162.383L128.519 162.434L136.22 162.466H138.3H138.841H139.029C138.971 162.47 138.912 162.47 138.855 162.466H138.328H136.275L128.601 162.498L102.405 162.553H102.29V162.434C102.29 160.907 102.29 159.364 102.29 157.806V153.042C102.528 152.804 102.359 152.978 102.414 152.923L139.033 152.968H139.107V153.042C139.107 156.02 139.074 158.375 139.065 159.996C139.065 160.79 139.065 161.401 139.065 161.829C139.065 162.026 139.065 162.182 139.065 162.287C139.051 162.358 139.028 162.428 138.997 162.493Z" fill="white"/>
<path d="M118.316 155.516V159.708H117.89V156.363L116.249 159.176H116.039L114.399 156.382V159.708H113.977V155.529H114.339L116.172 158.626L117.967 155.529L118.316 155.516Z" fill="white"/>
<path d="M122.297 158.576H119.969L119.465 159.694H119.007L120.918 155.516H121.353L123.263 159.694H122.805L122.297 158.576ZM122.136 158.219L121.133 155.974L120.13 158.219H122.136Z" fill="white"/>
<path d="M123.956 155.516H124.414V159.708H123.956V155.516Z" fill="white"/>
<path d="M125.761 155.516H126.219V159.309H128.56V159.708H125.779L125.761 155.516Z" fill="white"/>
<path d="M134.291 113.993V107.121H121.463V134.674C120.425 135.288 119.62 136.229 119.174 137.35C118.729 138.471 118.668 139.709 119.003 140.868C119.337 142.027 120.047 143.042 121.021 143.754C121.995 144.466 123.178 144.834 124.384 144.8C125.589 144.767 126.75 144.334 127.683 143.569C128.616 142.804 129.268 141.751 129.538 140.575C129.807 139.399 129.678 138.167 129.171 137.072C128.664 135.978 127.808 135.082 126.737 134.527V113.993H134.291Z" fill="#F8A92F"/>
<path d="M124.368 141.372C125.527 141.372 126.467 140.433 126.467 139.274C126.467 138.115 125.527 137.176 124.368 137.176C123.209 137.176 122.27 138.115 122.27 139.274C122.27 140.433 123.209 141.372 124.368 141.372Z" fill="#263238"/>
<path d="M45.5443 72.3301C45.5915 72.4199 45.6313 72.5133 45.6634 72.6095C45.7702 72.8833 45.8605 73.1633 45.9337 73.448C46.2038 74.4942 46.3089 75.5763 46.2453 76.655C46.1544 78.2635 45.6985 79.8303 44.9121 81.2364C43.93 82.9677 42.4327 84.3498 40.6284 85.1902C38.8302 86.0524 36.7968 86.2941 34.8466 85.8774C33.2717 85.5121 31.8142 84.7558 30.6088 83.6783C29.8001 82.9546 29.1173 82.1015 28.5884 81.1539C28.4443 80.8993 28.3158 80.6361 28.2035 80.3659C28.1568 80.2744 28.1214 80.1774 28.0981 80.0773C28.1256 80.0773 28.2768 80.4621 28.6708 81.1081C29.2209 82.0247 29.912 82.8487 30.7187 83.55C31.9133 84.5892 33.3476 85.315 34.8924 85.6621C36.7958 86.0562 38.776 85.8131 40.5276 84.9703C42.2883 84.1508 43.7537 82.8086 44.7242 81.1265C45.5041 79.7478 45.9659 78.2122 46.0757 76.6321C46.1557 75.5665 46.077 74.495 45.8421 73.4525C45.6772 72.7287 45.5168 72.3392 45.5443 72.3301Z" fill="#263238"/>
<path d="M84.5415 143.25L90.7952 143.168L90.5524 164.412L84.7477 164.641L84.5415 143.25Z" fill="#EBEBEB"/>
<path d="M84.7476 164.642C85.6036 163.536 86.5213 162.479 87.4964 161.476C88.4214 160.419 89.4065 159.415 90.4469 158.471C89.5794 159.575 88.6525 160.632 87.6705 161.636C86.7523 162.691 85.7765 163.695 84.7476 164.642Z" fill="#263238"/>
<path d="M90.7953 150.324C89.6703 149.245 88.6 148.11 87.5883 146.924C86.5149 145.793 85.501 144.606 84.5508 143.369C85.6771 144.447 86.7475 145.581 87.7578 146.769C88.8296 147.902 89.8434 149.088 90.7953 150.324Z" fill="#263238"/>
<path d="M37.6913 50.0738C37.6912 50.3965 37.7858 50.7121 37.9634 50.9815C38.1409 51.2509 38.3935 51.4624 38.69 51.5896C38.9865 51.7169 39.3138 51.7544 39.6314 51.6975C39.949 51.6406 40.2429 51.4919 40.4768 51.2696C41.361 50.4312 41.0587 48.956 40.5089 47.8656C39.9591 46.7752 39.1986 45.6711 39.3589 44.4661C39.4826 43.5499 40.124 42.7848 40.5547 41.9555C40.936 41.2359 41.1449 40.4375 41.1647 39.6233C41.1846 38.8091 41.015 38.0015 40.6692 37.2641C40.305 36.5347 39.7467 35.9199 39.0555 35.4874C38.3644 35.055 37.5673 34.8216 36.7521 34.813C35.0982 34.8451 33.3527 35.8805 31.882 35.12C30.8145 34.5656 30.3701 33.2874 29.4401 32.4994C28.0061 31.3128 25.8391 31.7068 24.1394 32.4994C22.4397 33.292 20.8132 34.387 18.9486 34.4786C17.3955 34.5519 15.9019 33.9013 14.3671 33.6906C12.6853 33.4638 10.9747 33.7667 9.473 34.5572C7.97133 35.3477 6.75331 36.5865 5.98834 38.1013C5.22337 39.6161 4.94945 41.3317 5.2047 43.0094C5.45994 44.6871 6.23165 46.2436 7.41251 47.4624C8.23311 48.3709 9.34745 48.9613 10.56 49.1301" fill="#263238"/>
<path d="M39.7668 85.0837C37.4355 85.8521 34.8948 85.6648 32.7014 84.563C30.508 83.4612 28.841 81.5346 28.0657 79.2057C27.1495 76.4293 26.366 74.0928 26.366 74.0928C26.366 74.0928 18.9899 75.2198 16.6809 68.2148C14.3718 61.2098 10.725 45.6237 10.725 45.6237L10.5005 44.6799C17.5376 38.6095 27.5435 37.597 36.2711 40.7811L36.7293 42.2334L45.8922 73.9874C46.47 76.269 46.1586 78.6849 45.0212 80.7455C43.8837 82.806 42.0053 84.3568 39.7668 85.0837Z" fill="#FFBE9D"/>
<path d="M16.8963 55.9564C17.0724 55.827 17.2052 55.6473 17.2771 55.4409C17.3491 55.2345 17.3568 55.0112 17.2992 54.8003C17.2417 54.5895 17.1216 54.4011 16.9548 54.2598C16.788 54.1186 16.5823 54.0313 16.3648 54.0093C16.1049 53.9775 15.843 54.05 15.6364 54.2109C15.457 54.339 15.3211 54.5188 15.2468 54.7263C15.1726 54.9338 15.1635 55.1591 15.2208 55.3719C15.2781 55.5847 15.3991 55.7749 15.5675 55.9171C15.736 56.0592 15.9438 56.1465 16.1632 56.1672C16.2933 56.182 16.425 56.171 16.5508 56.1349C16.6766 56.0987 16.794 56.0381 16.8963 55.9564Z" fill="#263238"/>
<path d="M13.9687 55.0761C14.1199 55.1631 14.6422 54.4117 15.6088 54.1002C16.5755 53.7887 17.4414 54.0681 17.501 53.9124C17.5376 53.8391 17.359 53.6558 16.9787 53.5184C16.4721 53.3499 15.9249 53.348 15.4171 53.5129C14.9093 53.6777 14.4676 54.0008 14.1565 54.4347C13.932 54.792 13.9 55.0394 13.9687 55.0761Z" fill="#263238"/>
<path d="M25.789 52.0428C25.6503 52.2032 25.5622 52.4011 25.536 52.6116C25.5098 52.822 25.5466 53.0355 25.6418 53.225C25.7369 53.4145 25.8861 53.5715 26.0705 53.6762C26.2549 53.781 26.4662 53.8286 26.6777 53.8133C26.8891 53.7979 27.0913 53.7201 27.2586 53.5898C27.4259 53.4595 27.5508 53.2826 27.6175 53.0813C27.6842 52.88 27.6897 52.6634 27.6334 52.459C27.577 52.2546 27.4613 52.0715 27.3008 51.9329C27.0852 51.7481 26.8054 51.6561 26.5223 51.6767C26.2391 51.6973 25.9756 51.8289 25.789 52.0428Z" fill="#263238"/>
<path d="M24.5059 52.716C24.6525 52.8031 25.1748 52.0563 26.1414 51.7447C27.1081 51.4332 27.974 51.7127 28.0382 51.5523C28.0748 51.4836 27.8961 51.2958 27.5159 51.1629C27.0093 50.9945 26.462 50.9925 25.9543 51.1574C25.4465 51.3223 25.0048 51.6453 24.6937 52.0792C24.4692 52.4274 24.4326 52.6794 24.5059 52.716Z" fill="#263238"/>
<path d="M23.1455 61.9334C23.1455 61.8601 22.4904 61.9334 21.4779 62.1075C21.2167 62.1625 20.9923 62.1716 20.9235 62.0296C20.83 61.7775 20.8125 61.5035 20.8731 61.2416C20.919 60.5269 20.9648 59.7938 21.0152 59.0287C21.1847 55.8905 21.203 53.3432 21.0564 53.334C20.9098 53.3248 20.6441 55.863 20.47 59.0013C20.4333 59.7664 20.4013 60.4948 20.3692 61.2141C20.3087 61.5874 20.3765 61.9701 20.5616 62.2999C20.6263 62.3835 20.7098 62.4507 20.8053 62.4961C20.9008 62.5415 21.0057 62.5637 21.1114 62.561C21.267 62.5568 21.4212 62.5305 21.5695 62.4831C22.5545 62.2128 23.1593 62.0067 23.1455 61.9334Z" fill="#263238"/>
<path d="M26.6275 62.0127C27.4476 61.0964 24.3368 64.363 22.3164 64.8899C22.8051 65.2956 23.4171 65.5233 24.0522 65.5358C24.6873 65.5483 25.3078 65.3448 25.8121 64.9586C27.6721 63.5246 26.6275 62.0127 26.6275 62.0127Z" fill="white"/>
<path d="M26.3247 73.9977C29.5895 73.0334 32.4936 71.1196 34.6675 68.5C34.6675 68.5 34.0994 74.2451 26.8791 75.8303L26.3247 73.9977Z" fill="#EB996E"/>
<path d="M37.7466 47.0354C37.8886 46.9346 42.8641 44.9829 43.8949 51.1816C44.9257 57.3803 38.3238 56.3633 38.2826 56.1892C38.2414 56.0151 37.7466 47.0354 37.7466 47.0354Z" fill="#FFBE9D"/>
<path d="M39.8216 53.7021C39.8216 53.6746 39.9407 53.757 40.1377 53.812C40.4133 53.8773 40.7034 53.8347 40.9486 53.6929C41.5625 53.3447 41.9382 52.2131 41.787 51.0952C41.7132 50.5608 41.5224 50.0492 41.2281 49.5971C41.1369 49.4134 41.0027 49.2544 40.8367 49.134C40.6707 49.0135 40.478 48.935 40.2751 48.9053C40.1456 48.893 40.0159 48.9266 39.9087 49.0004C39.8015 49.0741 39.7236 49.1831 39.6887 49.3085C39.6337 49.4917 39.6887 49.6108 39.6887 49.6246C39.6887 49.6383 39.5375 49.5467 39.5421 49.281C39.5538 49.1211 39.6183 48.9696 39.7253 48.8503C39.8744 48.6946 40.078 48.6026 40.2935 48.5938C40.5562 48.6025 40.8124 48.6782 41.0377 48.8137C41.263 48.9492 41.4499 49.14 41.5808 49.368C41.9198 49.8656 42.1335 50.4377 42.2039 51.0357C42.3734 52.2864 41.929 53.5646 41.0769 53.9678C40.9185 54.0451 40.7446 54.0853 40.5683 54.0853C40.3921 54.0853 40.2182 54.0451 40.0598 53.9678C39.8582 53.8487 39.8032 53.7158 39.8216 53.7021Z" fill="#EB996E"/>
<path d="M9.91887 49.0238C9.91887 49.0238 14.7798 49.8989 19.5766 45.5557C22.7194 42.706 26.7328 40.6169 27.8827 41.0887C29.0327 41.5606 30.2788 45.2762 34.2143 45.3587C34.2143 45.3587 35.9781 52.6202 38.7728 51.5619C41.5675 50.5036 36.6562 39.8655 36.6562 39.8655L28.7715 36.9746L20.7128 37.6756L12.5303 40.9788L8.54443 45.2304L9.91887 49.0238Z" fill="#263238"/>
<path d="M35.4831 33.7168C34.9588 33.9127 34.4579 34.1663 33.9895 34.4727C33.5663 34.8404 33.1866 35.2555 32.8579 35.7097C33.0246 35.1403 33.3695 34.6394 33.8421 34.2807C34.3146 33.9219 34.8898 33.7243 35.4831 33.7168Z" fill="#263238"/>
<path d="M31.7402 31.7051C31.8874 31.884 31.9994 32.0892 32.0701 32.3098C32.2892 32.8231 32.4431 33.3618 32.5282 33.9133C32.6134 34.4674 32.5979 35.0324 32.4824 35.581C32.4565 35.8138 32.3748 36.037 32.2442 36.2315C32.3514 35.4726 32.3668 34.7035 32.29 33.9408C32.0976 32.6947 31.6669 31.7326 31.7402 31.7051Z" fill="#263238"/>
<path d="M50.5698 142.93L82.2963 137.029L87.0381 158.47L54.0884 164.032L50.5698 142.93Z" fill="#E0E0E0"/>
<path d="M82.2963 137.029C82.2963 137.029 82.2963 137.061 82.2414 137.116L82.0627 137.368L81.3571 138.312L78.7182 141.762C76.455 144.685 73.3488 148.703 69.8898 153.165L69.8302 153.243L69.7432 153.197L69.1247 152.872L55.9805 145.885L52.013 143.741L50.9363 143.15L50.6615 142.99C50.6282 142.973 50.5974 142.951 50.5698 142.926L50.6706 142.967L50.9592 143.104L52.0542 143.672C53.0209 144.172 54.3816 144.882 56.063 145.748L69.2346 152.661L69.8485 152.986L69.6974 153.019L78.5808 141.661L81.2793 138.253C81.5954 137.868 81.8428 137.561 82.0215 137.336C82.1039 137.245 82.1681 137.167 82.2185 137.103L82.2963 137.029Z" fill="#263238"/>
<path d="M54.0885 164.031C54.0335 163.994 56.0723 160.76 58.647 156.806C61.2218 152.852 63.3476 149.673 63.4026 149.709C63.4575 149.746 61.4188 152.98 58.8211 156.934C56.2234 160.888 54.1435 164.068 54.0885 164.031Z" fill="#263238"/>
<path d="M87.0381 158.469C86.9969 158.52 84.0281 156.247 80.4088 153.393C76.7894 150.539 73.8894 148.184 73.9306 148.134C73.9718 148.083 76.936 150.351 80.56 153.205C84.1839 156.06 87.1023 158.414 87.0381 158.469Z" fill="#263238"/>
<path d="M51.4035 147.713C51.4035 147.713 51.628 151.868 53.6301 151.836C55.6322 151.804 62.6968 147.947 63.5168 149.284C64.3369 150.622 62.1699 152.491 62.1699 152.491C62.1699 152.491 64.6576 152.455 63.7322 153.944C62.8067 155.433 60.0349 162.406 57.4739 163.061C53.8088 164 45.3193 164.366 45.3193 164.366L47.9353 149.765L51.4035 147.713Z" fill="#FFBE9D"/>
<path d="M62.94 151.588C62.8635 151.697 62.7743 151.797 62.6743 151.886C62.491 152.064 62.2161 152.316 61.8679 152.61C60.035 154.146 57.9708 155.383 55.7517 156.275C55.3256 156.444 54.9775 156.568 54.7346 156.646C54.6102 156.697 54.479 156.729 54.3452 156.742C54.7796 156.507 55.2279 156.299 55.6876 156.119C57.8487 155.139 59.8876 153.908 61.7626 152.454C62.1367 152.141 62.5299 151.852 62.94 151.588Z" fill="#EB996E"/>
<path d="M62.8209 155.703C62.6284 156.084 62.3832 156.435 62.0925 156.748C60.7506 158.332 59.0112 159.531 57.0529 160.22C56.6569 160.382 56.2407 160.488 55.8159 160.537C56.1992 160.361 56.5924 160.208 56.9933 160.078C58.8772 159.316 60.5687 158.146 61.9459 156.651C62.2208 156.32 62.5129 156.004 62.8209 155.703Z" fill="#EB996E"/>
</svg>
